# xmcd
#
# Track frame offsets: 
#        150
#        14242
#        27427
#        46800
#        69567
#        86382
#        104930
#        116817
#        135142
#        155230
#        178097
#        203722
#        219007
#        239930
#        254015
#
# Disc length: 3707 seconds
#
# Revision: 2
# Processed by: cddbd v1.5.2PL0 Copyright (c) Steve Scherf et al.
# Submitted via: ExactAudioCopy v1.0b3
#
DISCID=e20e790f
DTITLE=Various Artist - Tower Takes Texas by Storm
DYEAR=1999
DGENRE=Blues
TTITLE0=Rosie Flores - We'll Survive
TTITLE1=Anson Funderburgh - Change in My Pocket
TTITLE2=Marcia Ball - The Right Tool for the Job
TTITLE3=Ray Wylie Hubbard - Last Train to Amsterdam
TTITLE4=Smokin' Joe Kubek - Damn Traffic
TTITLE5=Jim Suhler - I Know a Secret
TTITLE6=Nanci Griffith - Daddy Said
TTITLE7=Tish Hinojosa - Closer Still
TTITLE8=Andrew "Jr. Boy" Jones - Watch What You Say
TTITLE9=Pat Boyack - Why Must I Suffer
TTITLE10=Tutu Jones - Good Juice
TTITLE11=Heather Myles - Love Me a Little Bit Longer
TTITLE12=Roomful of Blues - Backseat Blues
TTITLE13=Susan Tedeschi - You Need to Be with Me
TTITLE14=Preston Shannon - Tired of the Ghetto
EXTD=1999 Rounder Records Corp. One Camp Street, Cambridge, Massachuse
EXTD=tts 02140 USA.\nA Promotional CD
EXTT0=
EXTT1=
EXTT2=
EXTT3=
EXTT4=
EXTT5=
EXTT6=
EXTT7=
EXTT8=
EXTT9=
EXTT10=
EXTT11=
EXTT12=
EXTT13=
EXTT14=
PLAYORDER=
